<mxfile host="app.diagrams.net" agent="Mozilla/5.0 (Macintosh; Intel Mac OS X 10_15_7) AppleWebKit/537.36 (KHTML, like Gecko) Chrome/139.0.0.0 Safari/537.36" version="28.1.1">
  <diagram name="Sayfa -1" id="Ma1jOXJBeyYna0XxjU4D">
    <mxGraphModel grid="1" page="1" gridSize="10" guides="1" tooltips="1" connect="1" arrows="1" fold="1" pageScale="1" pageWidth="827" pageHeight="1169" math="0" shadow="0">
      <root>
        <mxCell id="0" />
        <mxCell id="1" parent="0" />
        <mxCell id="GGrOpnbd1Zkwd0CWz1d5-1" value="&lt;font style=&quot;font-size: 24px;&quot;&gt;Girilen Sayıya Kadar Olan Çift Sayıları Topla&lt;/font&gt;" style="text;html=1;align=center;verticalAlign=middle;whiteSpace=wrap;rounded=0;" vertex="1" parent="1">
          <mxGeometry x="140" y="20" width="560" height="140" as="geometry" />
        </mxCell>
        <mxCell id="GGrOpnbd1Zkwd0CWz1d5-7" style="edgeStyle=orthogonalEdgeStyle;rounded=0;orthogonalLoop=1;jettySize=auto;html=1;entryX=0.5;entryY=0;entryDx=0;entryDy=0;" edge="1" parent="1" source="GGrOpnbd1Zkwd0CWz1d5-2">
          <mxGeometry relative="1" as="geometry">
            <mxPoint x="330" y="290" as="targetPoint" />
          </mxGeometry>
        </mxCell>
        <mxCell id="GGrOpnbd1Zkwd0CWz1d5-2" value="Başla" style="ellipse;whiteSpace=wrap;html=1;" vertex="1" parent="1">
          <mxGeometry x="270" y="170" width="120" height="80" as="geometry" />
        </mxCell>
        <mxCell id="GGrOpnbd1Zkwd0CWz1d5-31" value="Son" style="ellipse;whiteSpace=wrap;html=1;" vertex="1" parent="1">
          <mxGeometry x="270" y="630" width="120" height="80" as="geometry" />
        </mxCell>
        <mxCell id="GGrOpnbd1Zkwd0CWz1d5-47" style="edgeStyle=orthogonalEdgeStyle;rounded=0;orthogonalLoop=1;jettySize=auto;html=1;entryX=0.5;entryY=0;entryDx=0;entryDy=0;" edge="1" parent="1" source="GGrOpnbd1Zkwd0CWz1d5-44" target="GGrOpnbd1Zkwd0CWz1d5-45">
          <mxGeometry relative="1" as="geometry" />
        </mxCell>
        <mxCell id="GGrOpnbd1Zkwd0CWz1d5-44" value="n" style="shape=parallelogram;perimeter=parallelogramPerimeter;whiteSpace=wrap;html=1;fixedSize=1;" vertex="1" parent="1">
          <mxGeometry x="270" y="290" width="120" height="60" as="geometry" />
        </mxCell>
        <mxCell id="GGrOpnbd1Zkwd0CWz1d5-48" style="edgeStyle=orthogonalEdgeStyle;rounded=0;orthogonalLoop=1;jettySize=auto;html=1;" edge="1" parent="1" source="GGrOpnbd1Zkwd0CWz1d5-45" target="GGrOpnbd1Zkwd0CWz1d5-46">
          <mxGeometry relative="1" as="geometry" />
        </mxCell>
        <mxCell id="GGrOpnbd1Zkwd0CWz1d5-45" value="n = n/2" style="rounded=0;whiteSpace=wrap;html=1;" vertex="1" parent="1">
          <mxGeometry x="270" y="390" width="120" height="60" as="geometry" />
        </mxCell>
        <mxCell id="GGrOpnbd1Zkwd0CWz1d5-49" style="edgeStyle=orthogonalEdgeStyle;rounded=0;orthogonalLoop=1;jettySize=auto;html=1;" edge="1" parent="1" source="GGrOpnbd1Zkwd0CWz1d5-46" target="GGrOpnbd1Zkwd0CWz1d5-31">
          <mxGeometry relative="1" as="geometry" />
        </mxCell>
        <mxCell id="GGrOpnbd1Zkwd0CWz1d5-46" value="n*(n+1)" style="shape=document;whiteSpace=wrap;html=1;boundedLbl=1;" vertex="1" parent="1">
          <mxGeometry x="270" y="490" width="120" height="80" as="geometry" />
        </mxCell>
      </root>
    </mxGraphModel>
  </diagram>
</mxfile>
